<?xml version="1.0" encoding="UTF-8"?>
<svg xmlns="http://www.w3.org/2000/svg" version="1.1" viewBox="0 0 512 512">
  <defs>
    <style>
      .cls-1 {
        fill: #4f9edd;
        fill-rule: evenodd;
        stroke: #4f9edd;
        stroke-miterlimit: 10;
        stroke-width: 5px;
      }
    </style>
  </defs>
  <!-- Generator: Adobe Illustrator 28.6.0, SVG Export Plug-In . SVG Version: 1.2.0 Build 709)  -->
  <g>
    <g id="Layer_1">
      <g id="Layer_1-2" data-name="Layer_1">
        <g id="Layer_1-2">
          <g>
            <path class="cls-1" d="M387.8,481.6H124.7c-13.6,0-24.7-11.1-24.7-24.7V114.6c0-13.6,11.1-24.7,24.7-24.7h43.4c4.3,0,7.7,3.5,7.7,7.7s-3.5,17.7-7.7,17.7h-33.4c-5.1,0-9.3,4.2-9.3,9.3v322.2c0,5.1,4.2,9.3,9.3,9.3h243.1c5.1,0,9.3-4.2,9.3-9.3V124.7c0-5.1-4.2-9.3-9.3-9.3h-33.4c-4.3,0-7.7-13.5-7.7-17.7s3.5-7.7,7.7-7.7h43.4c13.6,0,24.7,11.1,24.7,24.7v342.2c0,13.6-11.1,24.7-24.7,24.7h0Z"/>
            <path class="cls-1" d="M320.2,157.8h-127.8c-18.2,0-33-14.8-33-33v-19.9c0-18.2,14.8-33,33-33h3.8c7.3,0,13.4-4,16.2-10.7,7.5-17.7,24.7-29.1,43.8-29.1s36.4,11.4,43.8,29.1c2.8,6.7,8.9,10.7,16.2,10.7h3.8c18.2,0,33,14.8,33,33v19.9c0,18.2-14.8,33-33,33h.2ZM192.4,87.3c-9.7,0-17.6,7.9-17.6,17.6v19.9c0,9.7,7.9,17.6,17.6,17.6h127.8c9.7,0,17.6-7.9,17.6-17.6v-19.9c0-9.7-7.9-17.6-17.6-17.6h-3.8c-13.5,0-25.2-7.7-30.4-20.2-5-12-16.7-19.7-29.6-19.7s-24.6,7.7-29.6,19.7c-5.3,12.5-16.9,20.2-30.4,20.2h-4Z"/>
            <path class="cls-1" d="M256.3,106.2c-12.6,0-22.8-10.2-22.8-22.8s10.2-22.8,22.8-22.8,22.8,10.2,22.8,22.8-10.2,22.8-22.8,22.8ZM256.3,76.1c-4,0-7.4,3.3-7.4,7.4s3.3,7.4,7.4,7.4,7.4-3.3,7.4-7.4-3.3-7.4-7.4-7.4Z"/>
            <path class="cls-1" d="M344.6,408.5h-28.9c-4.3,0-7.7-3.5-7.7-7.7s3.5-7.7,7.7-7.7h21.2v-7.5c0-12.8-4.5-25.9-37.6-25.9s-6.8-2.5-7.5-6.1l-1.4-6.6c-2.6-12-13-20.4-25.3-20.4h-35.3c-9.8,0-18.1,4.9-22.8,13.6l-8.4,15.5c-.6,1.2-1.5,2.1-2.6,2.8l-20.3,13v21.7h21.1c4.3,0,7.7,3.5,7.7,7.7s-3.5,7.7-7.7,7.7h-28.9c-4.3,0-7.7-3.5-7.7-7.7v-33.6c0-2.6,1.3-5.1,3.6-6.5l22.1-14.2,7.4-13.8c7.3-13.6,20.9-21.7,36.3-21.7h35.3c19.6,0,36.2,13.4,40.4,32.6l.2.7c11.9.6,21.3,2.9,28.6,7,8.3,4.7,18.2,14.5,18.2,34.1v15.3c0,4.3-3.5,7.8-7.7,7.8h0ZM284.2,408.5c4.3,0,7.7-3.5,7.7-7.7s-3.5-7.7-7.7-7.7h-55.9c-4.3,0-7.7,3.5-7.7,7.7s3.5,7.7,7.7,7.7h55.9Z"/>
            <path class="cls-1" d="M299.3,359.6h-107.6c-4.3,0-7.7-3.5-7.7-7.7s3.5-7.7,7.7-7.7h107.6c4.3,0,7.7,3.5,7.7,7.7s-3.5,7.7-7.7,7.7Z"/>
            <path class="cls-1" d="M245.5,359.6c-4.3,0-7.7-3.5-7.7-7.7v-33.1c0-4.3,3.5-7.7,7.7-7.7s7.7,3.5,7.7,7.7v33.1c0,4.3-3.5,7.7-7.7,7.7Z"/>
            <path class="cls-1" d="M212.6,425.7c-13,0-23.6-10.6-23.6-23.6s10.6-23.6,23.6-23.6,23.6,10.6,23.6,23.6-10.6,23.6-23.6,23.6ZM212.6,394.1c-4.5,0-8.1,3.6-8.1,8.1s3.6,8.1,8.1,8.1,8.1-3.6,8.1-8.1-3.6-8.1-8.1-8.1Z"/>
            <path class="cls-1" d="M300,425.7c-13,0-23.6-10.6-23.6-23.6s10.6-23.6,23.6-23.6,23.6,10.6,23.6,23.6-10.6,23.6-23.6,23.6ZM300,394.1c-4.5,0-8.1,3.6-8.1,8.1s3.6,8.1,8.1,8.1,8.1-3.6,8.1-8.1-3.6-8.1-8.1-8.1Z"/>
            <path class="cls-1" d="M178.2,207.9c-2,0-4-.8-5.5-2.3l-10.2-10.2c-3-3-3-7.9,0-10.9s7.9-3,10.9,0l4.8,4.8,19.3-19.3c3-3,7.9-3,10.9,0s3,7.9,0,10.9l-24.7,24.7c-1.5,1.5-3.5,2.3-5.4,2.3h-.1Z"/>
            <path class="cls-1" d="M345.1,195.6h-106.1c-4.3,0-7.7-3.5-7.7-7.7s3.5-7.7,7.7-7.7h106.1c4.3,0,7.7,3.5,7.7,7.7s-3.5,7.7-7.7,7.7Z"/>
            <path class="cls-1" d="M178.4,254.9c-2,0-4-.8-5.5-2.3l-10.2-10.2c-3-3-3-7.9,0-10.9s7.9-3,10.9,0l4.8,4.8,19.3-19.3c3-3,7.9-3,10.9,0s3,7.9,0,10.9l-24.7,24.7c-1.4,1.5-3.4,2.3-5.4,2.3h-.1Z"/>
            <path class="cls-1" d="M344.9,242.5h-105.7c-4.3,0-7.7-3.5-7.7-7.7s3.5-7.7,7.7-7.7h105.7c4.3,0,7.7,3.5,7.7,7.7s-3.5,7.7-7.7,7.7Z"/>
            <path class="cls-1" d="M178.4,301.8c-2,0-4-.8-5.5-2.3l-10.2-10.2c-3-3-3-7.9,0-10.9s7.9-3,10.9,0l4.8,4.8,19.3-19.3c3-3,7.9-3,10.9,0s3,7.9,0,10.9l-24.7,24.7c-1.4,1.4-3.4,2.3-5.4,2.3h-.1Z"/>
            <path class="cls-1" d="M344.9,289.4h-105.7c-4.3,0-7.7-3.5-7.7-7.7s3.5-7.7,7.7-7.7h105.7c4.3,0,7.7,3.5,7.7,7.7s-3.5,7.7-7.7,7.7Z"/>
          </g>
        </g>
      </g>
    </g>
  </g>
</svg>