<?xml version="1.0" encoding="UTF-8"?>
<svg xmlns="http://www.w3.org/2000/svg" version="1.1" viewBox="0 0 512 512">
  <defs>
    <style>
      .cls-1 {
        fill: #4f9edd;
      }

      .cls-2 {
        fill: #fff;
      }
    </style>
  </defs>
  <!-- Generator: Adobe Illustrator 28.6.0, SVG Export Plug-In . SVG Version: 1.2.0 Build 709)  -->
  <g>
    <g id="Layer_1">
      <g id="File_management">
        <path class="cls-1" d="M368,256c-13.3,0-24,10.7-24,24v-96c0-13.3-10.7-24-24-24s-24,10.7-24,24v165.4l-29.4-48.8c-6.5-11.6-21.1-15.7-32.7-9.2-11.6,6.5-15.7,21.1-9.2,32.7.2.4.5.8.7,1.2l45.4,83.4,33.1,31.3v16H80V24h240v104h96v136c-13.3,0-24,10.7-24,24v-8c0-13.3-10.7-24-24-24Z"/>
        <g>
          <path class="cls-2" d="M112,88h176v16H112v-16Z"/>
          <path class="cls-2" d="M112,58h176v16H112v-16Z"/>
          <path class="cls-2" d="M112,120h176v16H112v-16Z"/>
          <path class="cls-2" d="M112,152h160v16H112v-16Z"/>
          <path class="cls-2" d="M112,184h160v16H112v-16Z"/>
          <path class="cls-2" d="M112,212h160v16H112v-16Z"/>
          <path class="cls-1" d="M464,264c-2.7,0-5.4.4-8,1.1V76c0-10-5.1-27.6-28-28h-75l-27.2-29.4c-1.5-1.6-3.6-2.6-5.8-2.6H100c-15.9,0-28,3.6-28,30v390c0,12,8,28,28,28h52v4c-.1,21.7,12.6,28,28,28h284c4.4,0,8-3.6,8-8v-46.8l23.7-78.9c.2-.8.3-1.5.3-2.3v-64c0-17.7-14.3-32-32-32h0ZM430,74v193c-4.2-4.8.2-8.3-6-9.9v-129.1c0-2-.8-4-2.2-5.4l-54-48.6h62.2ZM328,44.5l69.8,75.5h-69.8V44.5ZM296,448H88V32h224v96c0,4.4,3.6,8,8,8h88v121.1c-4.7,1.3-9,3.5-12.6,6.6-5.7-9.8-16.1-15.8-27.4-15.8s-11.2,1.6-16,4.5v-68.5c0-17.7-14.3-32-32-32s-32,14.3-32,32v136.6l-14.5-24.1c-5.7-9.7-16.2-15.6-27.4-15.6-17.7,0-32,14.3-32,32s1.5,11.3,4.4,16.3l45.4,83.4c.4.7.9,1.4,1.5,2l30.6,28.9v4.6h0ZM480,358.8l-23.7,78.9c-.2.8-.3,1.5-.3,2.3v40h-144v-40c0-2.2-.9-4.3-2.5-5.8l-32.2-30.4-44.9-82.6c-5-7.3-3.2-17.2,4.1-22.3,7.3-5,17.2-3.2,22.3,4.1.4.5.7,1.1,1,1.7l29.4,48.8c2.3,3.8,7.2,5.1,11,2.8,2.5-1.5,3.9-4.1,3.9-7v-165.4c0-8.8,7.2-16,16-16s15.9,7.2,16,16v136h16v-40c0-8.8,7.2-16,16-16s16,7.2,16,16v48h16v-40c0-8.8,7.2-16,16-16s16,7.2,16,16v48h16v-40c0-8.8,7.2-16,16-16s16,7.2,16,16v62.8h0Z"/>
        </g>
      </g>
    </g>
  </g>
</svg>