<?xml version="1.0" encoding="UTF-8"?>
<svg xmlns="http://www.w3.org/2000/svg" version="1.1" viewBox="0 0 512 512">
  <defs>
    <style>
      .cls-1 {
        fill: #4f9edd;
      }

      .cls-2 {
        fill: #fff;
        stroke: #fff;
        stroke-miterlimit: 10;
        stroke-width: 15px;
      }
    </style>
  </defs>
  <!-- Generator: Adobe Illustrator 28.6.0, SVG Export Plug-In . SVG Version: 1.2.0 Build 709)  -->
  <g>
    <g id="Layer_1">
      <g id="Capa_1">
        <g>
          <circle class="cls-1" cx="256" cy="145.6" r="95.4"/>
          <g>
            <path class="cls-1" d="M499.3,254.8c-17.3-17.9-45.8-18.5-63.8-1.1l-59.6,57.6c-7.1-11.9-20.3-20-35.2-20h-99.8c-9.4,0-18.8-2.8-27.3-8-30.7-19.1-72.3-15.8-99.6,12.1-3.9,3.9-3.8,10.3,0,14.1,3.9,3.9,10.3,13.8,14.1,9.9,20.4-20.8,51.7-23.4,74.8-9.1,11.6,7.2,24.7,11.1,37.8,11.1h89.8c11.2,0,16.5-1.2,16.7,9.6.3,11.4-4.9,6.6-16.1,6.6h-90.4c-5.5,0-10,14-10,19.5s4.5,14.5,10,14.5h100.4c21.3,0,38.8-16.6,40-37.7l66-59.7c10.2-9.8,22-11.2,31.6-1.4,9.5,9.9,5.7,5.1,3.4,15.6l-105.1,103.4c-9.4,9.1-21.8,10.1-34.9,10.1H121.2c-5.5,0-10,24.5-10,30s4.5,10,10,10h221.2c18.3,0,35.6-7,48.8-19.7l107.1-103.4c18.1-17.5,18.3-46.1,1.1-63.8h0v-.2Z"/>
            <path class="cls-2" d="M226.8,184.9c3.8,3.8,9.9,3.8,13.7,0l62.6-62.2c3.8-3.8,3.8-9.8,0-13.6s-9.9-3.8-13.7,0l-55.7,55.3-14-13.9c-3.8-3.8-9.9-3.8-13.7,0-3.8,3.8-3.8,9.8,0,13.6l20.9,20.8h0Z"/>
          </g>
          <path class="cls-1" d="M131.2,461.8H0v-200.7h131.2v200.7Z"/>
        </g>
      </g>
    </g>
  </g>
</svg>