<?xml version="1.0" encoding="UTF-8"?>
<svg xmlns="http://www.w3.org/2000/svg" version="1.1" viewBox="0 0 512 512">
  <defs>
    <style>
      .cls-1 {
        fill: #4f9edd;
      }
    </style>
  </defs>
  <!-- Generator: Adobe Illustrator 28.6.0, SVG Export Plug-In . SVG Version: 1.2.0 Build 709)  -->
  <g>
    <g id="glipy_copy">
      <path class="cls-1" d="M256.1,387.4c2.3,0,4.4-1,5.9-2.6,5.3-5.9,129.3-145,129.3-217.4,0-74.7-60.5-135.2-135.2-135.3-74.7,0-135.2,60.5-135.3,135.2h0c0,72.5,124,211.6,129.3,217.5,1.5,1.7,3.7,2.7,6,2.6ZM184.4,156.6c0-39.6,32.1-71.6,71.7-71.6s71.6,32.1,71.6,71.7c0,39.5-32.1,71.6-71.6,71.6-39.6,0-71.7-32.1-71.7-71.7ZM256.1,212.3c-30.7,0-55.7-24.9-55.7-55.6,0-30.7,24.9-55.7,55.6-55.7,30.7,0,55.7,24.9,55.7,55.6,0,30.7-24.9,55.6-55.6,55.7ZM120.7,344.7c0-18.5,12.7-35.9,35.9-49,3.8-2.2,8.7-.8,10.9,3,2.2,3.8.8,8.7-3,10.9-17.9,10.1-27.8,22.6-27.8,35.1,0,30.1,54.6,55.6,119.3,55.6s119.3-25.5,119.3-55.6-9.8-24.8-27.4-35c-3.8-2.2-5.2-7.1-3-10.9,2.2-3.8,7.1-5.2,10.9-3,22.9,13.1,35.5,30.4,35.5,48.8,0,40.2-59.4,71.6-135.3,71.6s-135.3-31.5-135.3-71.6h0ZM454.9,390c0,50.5-87.4,90-198.9,90s-198.9-39.5-198.9-90,12.2-36.9,35.2-51.9c3.7-2.4,8.7-1.4,11.1,2.4,2.4,3.7,1.4,8.7-2.4,11.1-12.7,8.3-27.9,21.6-27.9,38.4,0,40.1,83.8,74,182.9,74s182.9-33.9,182.9-74-15.1-30.1-27.8-38.4c-3.7-2.4-4.7-7.4-2.3-11.1s7.4-4.7,11.1-2.3h0c22.9,14.9,35,32.8,35,51.8h0Z"/>
    </g>
  </g>
</svg>