<?xml version="1.0" encoding="UTF-8"?>
<svg xmlns="http://www.w3.org/2000/svg" version="1.1" viewBox="0 0 512 512">
  <defs>
    <style>
      .cls-1 {
        fill: #4f9edd;
      }
    </style>
  </defs>
  <!-- Generator: Adobe Illustrator 28.6.0, SVG Export Plug-In . SVG Version: 1.2.0 Build 709)  -->
  <g>
    <g id="Layer_1">
      <g id="icons">
        <g>
          <path class="cls-1" d="M171,266c-70.6,0-128-57.4-128-128S100.4,10,171,10s128,57.4,128,128-57.4,128-128,128ZM171,44c-56.2,0-94,37.8-94,94s37.8,94,94,94,95-37.8,95-94-38.8-94-95-94Z"/>
          <path class="cls-1" d="M171,202c-35.3,0-64-28.7-64-64s28.7-64,64-64,64,28.7,64,64-28.7,64-64,64ZM171,90c-26.5,0-48,21.5-48,48s21.5,48,48,48,48-21.5,48-48-21.5-48-48-48Z"/>
          <path class="cls-1" d="M171,202c-4.4,0-8-3.6-8-8v-112c0-4.4,3.6-8,8-8s8,3.6,8,8v112c0,4.4-3.6,8-8,8Z"/>
          <path class="cls-1" d="M219.5,174c-1.4,0-2.7-.3-4-1.1l-97-56c-3.8-2.2-5.1-7.1-2.9-10.9s7.1-5.1,10.9-2.9l97,56c3.8,2.2,5.1,7.1,2.9,10.9-1.5,2.6-4.2,4-6.9,4h0Z"/>
          <path class="cls-1" d="M122.5,174c-2.8,0-5.5-1.4-6.9-4-2.2-3.8-.9-8.7,2.9-10.9l97-56c3.8-2.2,8.7-.9,10.9,2.9s.9,8.7-2.9,10.9l-97,56c-1.3.7-2.6,1.1-4,1.1h0Z"/>
        </g>
        <g>
          <path class="cls-1" d="M356,505c-70.6,0-128-57.4-128-128s57.4-128,128-128,128,57.4,128,128-57.4,128-128,128ZM356,283c-56.2,0-94,37.8-94,94s37.8,94,94,94,95-37.8,95-94-38.8-94-95-94Z"/>
          <path class="cls-1" d="M356,441c-35.3,0-64-28.7-64-64s28.7-64,64-64,64,28.7,64,64-28.7,64-64,64ZM356,329c-26.5,0-48,21.5-48,48s21.5,48,48,48,48-21.5,48-48-21.5-48-48-48Z"/>
          <path class="cls-1" d="M356,441c-4.4,0-8-3.6-8-8v-112c0-4.4,3.6-8,8-8s8,3.6,8,8v112c0,4.4-3.6,8-8,8Z"/>
          <path class="cls-1" d="M404.5,413c-1.4,0-2.7-.3-4-1.1l-97-56c-3.8-2.2-5.1-7.1-2.9-10.9s7.1-5.1,10.9-2.9l97,56c3.8,2.2,5.1,7.1,2.9,10.9-1.5,2.6-4.2,4-6.9,4h0Z"/>
          <path class="cls-1" d="M307.5,413c-2.8,0-5.5-1.4-6.9-4-2.2-3.8-.9-8.7,2.9-10.9l97-56c3.8-2.2,8.7-.9,10.9,2.9s.9,8.7-2.9,10.9l-97,56c-1.3.7-2.6,1.1-4,1.1h0Z"/>
        </g>
        <g>
          <path class="cls-1" d="M364,238c-4.4,0-8-3.6-8-8v-104c0-4.4,3.6-8,8-8s8,3.6,8,8v104c0,4.4-3.6,8-8,8Z"/>
          <path class="cls-1" d="M364,134h-56c-4.4,0-8-3.6-8-8s3.6-8,8-8h56c4.4,0,8,3.6,8,8s-3.6,8-8,8Z"/>
          <path class="cls-1" d="M324,150c-2,0-4.1-.8-5.7-2.3l-16-16c-3.1-3.1-3.1-8.2,0-11.3s8.2-3.1,11.3,0l16,16c3.1,3.1,3.1,8.2,0,11.3s-3.6,2.3-5.7,2.3h.1Z"/>
          <path class="cls-1" d="M308,134c-2,0-4.1-.8-5.7-2.3-3.1-3.1-3.1-8.2,0-11.3l16-16c3.1-3.1,8.2-3.1,11.3,0s3.1,8.2,0,11.3l-16,16c-1.6,1.6-3.6,2.3-5.7,2.3h.1Z"/>
        </g>
        <g>
          <path class="cls-1" d="M156,389c-4.4,0-8-3.6-8-8v-104c0-4.4,3.6-8,8-8s8,3.6,8,8v104c0,4.4-3.6,8-8,8Z"/>
          <path class="cls-1" d="M212,389h-56c-4.4,0-8-3.6-8-8s3.6-8,8-8h56c4.4,0,8,3.6,8,8s-3.6,8-8,8Z"/>
          <path class="cls-1" d="M212,389c-2,0-4.1-.8-5.7-2.3l-16-16c-3.1-3.1-3.1-8.2,0-11.3s8.2-3.1,11.3,0l16,16c3.1,3.1,3.1,8.2,0,11.3-1.6,1.6-3.6,2.3-5.7,2.3h0Z"/>
          <path class="cls-1" d="M196,405c-2,0-4.1-.8-5.7-2.3-3.1-3.1-3.1-8.2,0-11.3l16-16c3.1-3.1,8.2-3.1,11.3,0s3.1,8.2,0,11.3l-16,16c-1.6,1.6-3.6,2.3-5.7,2.3h0Z"/>
        </g>
      </g>
    </g>
  </g>
</svg>