<?xml version="1.0" encoding="UTF-8"?>
<svg xmlns="http://www.w3.org/2000/svg" version="1.1" viewBox="0 0 512 512">
  <defs>
    <style>
      .cls-1 {
        fill: #4f9edd;
      }
    </style>
  </defs>
  <!-- Generator: Adobe Illustrator 28.6.0, SVG Export Plug-In . SVG Version: 1.2.0 Build 709)  -->
  <g>
    <g id="Layer_1">
      <path class="cls-1" d="M480,111v157c0,44-12.5,88.4-36.2,128.2-5.6,9.5-17.9,12.6-27.4,7-9.5-5.6-12.6-17.9-7-27.4,20-33.7,30.6-71,30.6-107.8V124L255,41.9,72,124v144c0,106.8,87.7,204,184,204s67.3-11.1,96.2-32.2c8.9-6.5,21.4-4.5,27.9,4.4,6.5,8.9,4.5,21.4-4.4,27.9-35.8,26.1-77.2,39.8-119.8,39.8s-60.1-7.2-88.3-21.3c-26.4-13.2-50.2-31.8-70.9-55.3-41.1-46.7-64.7-107.8-64.7-167.5V111c0-7.9,4.6-15,11.8-18.2L246.8,1.8c5.2-2.3,11.1-2.3,16.3,0l205,91c7.2,3.2,11.9,10.4,11.9,18.3ZM323,327v-4h-136v4c0,11-8.5,20-19.5,20h-21c-11,0-20-9-20-20v-45.2c0-17,7.4-32.4,19.4-43.6.2-1.1,26.4-71.4,26.9-72.3,11.8-20.9,34.9-33.9,60.2-33.9h44c25.4,0,48.5,13,60.3,34,.5.8,27.8,71.6,28,73,11.8,11.4,18.2,26.4,18.2,42.4v45.6c0,11-9,20-20,20h-21c-11,0-19.5-9-19.5-20ZM208.3,184.4l-13.3,35.6h120.5l-13.8-35.5c-4.9-7.7-14.4-12.5-24.8-12.5h-44c-10.3,0-19.8,4.8-24.7,12.4h0ZM205.5,277c0-11-9-20-20-20s-20,9-20,20,9,20,20,20,20-9,20-20ZM324.5,297c11,0,20-9,20-20s-9-20-20-20-20,9-20,20,9,20,20,20Z"/>
    </g>
  </g>
</svg>