<?xml version="1.0" encoding="UTF-8"?>
<svg xmlns="http://www.w3.org/2000/svg" version="1.1" viewBox="0 0 512 512">
  <defs>
    <style>
      .cls-1 {
        fill: #afb9d2;
      }

      .cls-2 {
        fill: #5b5d6e;
      }

      .cls-3 {
        fill: #959cb5;
      }

      .cls-4 {
        fill: #4f9edd;
      }

      .cls-5 {
        fill: #464655;
      }

      .cls-6 {
        fill: #c7cfe2;
      }

      .cls-7 {
        fill: #d5dced;
      }
    </style>
  </defs>
  <!-- Generator: Adobe Illustrator 28.6.0, SVG Export Plug-In . SVG Version: 1.2.0 Build 709)  -->
  <g>
    <g id="Capa_1">
      <polygon class="cls-6" points="239.5 363.4 156.9 363.4 148.6 421.2 247.7 421.2 239.5 363.4"/>
      <polygon class="cls-1" points="243 388.1 239.5 363.4 156.9 363.4 153.4 388.1 243 388.1"/>
      <path class="cls-7" d="M379.9,371.6H16.5c-9.1,0-16.5-7.4-16.5-16.5V99.1c0-9.1,7.4-16.5,16.5-16.5h363.4c9.1,0,16.5,7.4,16.5,16.5v256c0,9.1-7.4,16.5-16.5,16.5Z"/>
      <path class="cls-6" d="M16.5,82.6c-9.1,0-16.5,7.4-16.5,16.5v256c0,9.1,7.4,16.5,16.5,16.5h272.5L107.4,82.6H16.5Z"/>
      <path class="cls-2" d="M379.9,82.6H16.5c-9.1,0-16.5,7.4-16.5,16.5v231.2h396.4V99.1c0-9.1-7.4-16.5-16.5-16.5Z"/>
      <path class="cls-5" d="M0,99.1v231.2h263.1L107.4,82.6H16.5c-9.1,0-16.5,7.4-16.5,16.5Z"/>
      <path class="cls-4" d="M363.4,305.5H33c-4.6,0-8.3-3.7-8.3-8.3V115.6c0-4.6,3.7-8.3,8.3-8.3h330.3c4.6,0,8.3,3.7,8.3,8.3v181.7c0,4.6-3.7,8.3-8.3,8.3Z"/>
      <path class="cls-1" d="M429.4,223h-115.6c-9.1,0-16.5,7.4-16.5,16.5v173.4c0,9.1,7.4,16.5,16.5,16.5h115.6c9.1,0,16.5-7.4,16.5-16.5v-173.4c0-9.1-7.4-16.5-16.5-16.5Z"/>
      <path class="cls-3" d="M297.3,239.5v173.4c0,9.1,7.4,16.5,16.5,16.5h115.6l-115.6-206.5c-9.1,0-16.5,7.4-16.5,16.5Z"/>
      <path class="cls-4" d="M433.5,404.6h-123.9c-2.3,0-4.1-1.8-4.1-4.1v-148.6c0-2.3,1.8-4.1,4.1-4.1h123.9c2.3,0,4.1,1.8,4.1,4.1v148.6c0,2.3-1.8,4.1-4.1,4.1Z"/>
      <path class="cls-2" d="M355.1,338.6h148.6c4.6,0,8.3,3.7,8.3,8.3v74.3c0,4.6-3.7,8.3-8.3,8.3h-148.6c-4.6,0-8.3-3.7-8.3-8.3v-74.3c0-4.6,3.7-8.3,8.3-8.3Z"/>
      <path class="cls-5" d="M355.1,338.6c-4.6,0-8.3,3.7-8.3,8.3v74.3c0,4.6,3.7,8.3,8.3,8.3h99.1l-49.5-90.8h-49.5Z"/>
      <path class="cls-7" d="M264.3,429.4h-132.1c-4.6,0-8.3-3.7-8.3-8.3s3.7-8.3,8.3-8.3h132.1c4.6,0,8.3,3.7,8.3,8.3s-3.7,8.3-8.3,8.3Z"/>
      <path class="cls-3" d="M206.5,359.2h-16.5c-4.6,0-8.3-3.7-8.3-8.3h0c0-4.6,3.7-8.3,8.3-8.3h16.5c4.6,0,8.3,3.7,8.3,8.3h0c0,4.6-3.7,8.3-8.3,8.3Z"/>
      <path class="cls-4" d="M483.1,421.2h-107.4c-2.3,0-4.1-1.8-4.1-4.1v-66.1c0-2.3,1.8-4.1,4.1-4.1h107.4c2.3,0,4.1,1.8,4.1,4.1v66.1c0,2.3-1.8,4.1-4.1,4.1Z"/>
    </g>
  </g>
</svg>