<?xml version="1.0" encoding="UTF-8"?>
<svg xmlns="http://www.w3.org/2000/svg" version="1.1" viewBox="0 0 546 553">
  <defs>
    <style>
      .cls-1 {
        fill: #4f9edd;
      }
    </style>
  </defs>
  <!-- Generator: Adobe Illustrator 28.6.0, SVG Export Plug-In . SVG Version: 1.2.0 Build 709)  -->
  <g>
    <g id="Layer_1">
      <g id="Layer_1-2" data-name="Layer_1">
        <g id="Solid">
          <path class="cls-1" d="M129.8,355.8c1.5-1,3.3-2,5.2-3-8-23.9-12.2-49-12.3-74.3v-139.7c0-4.4,3.3-8.2,7.7-8.7,48.4-6.4,95.2-21.6,138-45,2.6-1.4,5.8-1.4,8.4,0,42.9,23.4,89.6,38.6,138,45,4.4.6,7.7,4.3,7.7,8.7v139.7c0,42.3-11.6,83.9-33.4,120.2l6.9,3.7,38.5,6c21.2-40,32.2-84.6,32.2-129.9V89.4c-67.2,0-133.1-19.3-189.8-55.4l-4.2-2.6-4.2,2.6c-56.6,36.1-122.5,55.4-189.8,55.4v189.2c0,33,5.8,65.7,17.3,96.5l33.9-19.3h-.1Z"/>
          <path class="cls-1" d="M272.5,102.9c-41.3,21.9-86,36.7-132.2,43.6v132.1c0,23.1,3.7,46.1,11.1,68,22.5-5.2,45.5-7.5,68.4-6.7,33-.8,65.7,5.6,95.9,19l57.7,31.5c20.4-33.7,31.2-72.3,31.3-111.7v-132.1c-46.3-6.9-90.9-21.7-132.2-43.6h0ZM272.5,285.4l-22.8,22.8c-6.8,6.8-18.1,6.8-24.9,0l-49.3-49.3,26.4-26.4,35.3,35.3,35.3-35.3,70.5-70.5,26.4,26.4-97,97h0Z"/>
          <circle class="cls-1" cx="113.8" cy="507.4" r="35.3"/>
          <path class="cls-1" d="M534.9,474.5l-6.9-22.7c-.2-.4-.3-.9-.7-1.3-5.4-8.2-14.3-13.2-24.1-13.6l-112.2-17.3c-.6,0-1.1-.2-1.5-.6l-82.1-44.7c-27.6-11.9-57.4-17.6-87.5-16.9-59.6,0-74.8,9.5-81.3,13.7l-49,28c-2.8,1.5-5.8,2.4-9,2.4h-28c-18.1,0-30.9,12.2-35,33.2l-8.9,35.6c-1.5,8.4.8,16.9,6.4,23.3,7.2,8.6,17.6,13.6,28.8,13.8h17.3c0-29.2,23.7-52.9,52.9-52.9s52.9,23.7,52.9,52.9h202.8c0-29.2,23.7-52.9,52.9-52.9s52.9,23.7,52.9,52.9h38.5c12.9,0,23.3-10.5,23.3-23.4s-.7-6.6-2.1-9.6h0ZM211,413.8c-33.7-1.9-67.8-4.4-97.9-7.9l34.6-19.8c4.5-2.9,16.1-10,63.3-10.8v38.6h0ZM228.7,414.8v-39.5c24.1.1,47.9,5.1,70.2,14.5l53,28.9c-31.4-.6-76.3-1.5-123.2-4h0Z"/>
          <circle class="cls-1" cx="422.4" cy="507.4" r="35.3"/>
        </g>
      </g>
    </g>
  </g>
</svg>