<?xml version="1.0" encoding="UTF-8"?>
<svg xmlns="http://www.w3.org/2000/svg" version="1.1" viewBox="0 0 512 512">
  <defs>
    <style>
      .cls-1 {
        fill: #fff;
      }

      .cls-1, .cls-2, .cls-3, .cls-4, .cls-5 {
        fill-rule: evenodd;
      }

      .cls-2 {
        fill: #e9e9ff;
      }

      .cls-6, .cls-5 {
        fill: #4f9edd;
      }

      .cls-3 {
        fill: #dbdbdb;
      }

      .cls-4 {
        fill: #5ebcfc;
      }
    </style>
  </defs>
  <!-- Generator: Adobe Illustrator 28.6.0, SVG Export Plug-In . SVG Version: 1.2.0 Build 709)  -->
  <g>
    <g id="Layer_1">
      <g>
        <path class="cls-5" d="M256,11L60.7,76.8c-9,3-14.8,11.1-14.8,20.6v180c0,117.4,122.2,166.1,210.2,223.6,88-57.5,210.2-106.2,210.2-223.6V97.4c0-9.5-5.8-17.6-14.8-20.6L256,11Z"/>
        <path class="cls-5" d="M256,11L60.7,76.8c-9,3-14.8,11.1-14.8,20.6v180c0,117.4,122.2,166.1,210.2,223.6V11h0Z"/>
        <path class="cls-1" d="M256,42.7l-180.2,60.7v174.1c0,22.4,5.4,42.8,16.9,62.1,31.3,52.7,107.4,91.8,163.2,126,19.3-12,39-23.4,58.4-35.2,57.2-35,121.8-78.1,121.8-152.8V103.3l-180.2-60.7Z"/>
        <path class="cls-3" d="M248.5,45.2l-172.7,58.1v174.1c0,22.4,5.4,42.8,16.9,62.1,30.5,51.3,103.2,89.6,158.6,123.2,16-9.7,32.1-19.1,48.1-28.9,57.2-35,121.8-78.1,121.8-152.8V103.3l-172.7-58.1Z"/>
        <path class="cls-1" d="M256,42.7l-180.2,60.7v174.1c0,22.4,5.4,42.8,16.9,62.1,31.3,52.7,107.4,91.8,163.2,126h0V42.7Z"/>
      </g>
      <circle class="cls-6" cx="255.9" cy="242.4" r="126.8"/>
      <g>
        <path class="cls-4" d="M256,115.6c70.1,0,126.9,56.8,126.9,126.9s-56.8,126.9-126.9,126.9V115.6Z"/>
        <path class="cls-2" d="M330.4,185.5c5.8,5.8,5.8,15.4,0,21.2l-92.1,92.1c-3.9,3.9-8.8,5.5-14.2,4.8s-9.8-3.6-12.5-8.4l-32.2-55.8c-4.1-7.1-1.7-16.4,5.5-20.5s16.4-1.7,20.5,5.5l23.8,41.1,80.2-80.2c5.8-5.8,15.4-5.8,21.2,0h0Z"/>
      </g>
    </g>
  </g>
</svg>