<?xml version="1.0" encoding="UTF-8"?>
<svg xmlns="http://www.w3.org/2000/svg" version="1.1" viewBox="0 0 512 512">
  <defs>
    <style>
      .cls-1 {
        fill: #4f9edd;
      }

      .cls-2 {
        fill: #fff;
      }
    </style>
  </defs>
  <!-- Generator: Adobe Illustrator 28.6.0, SVG Export Plug-In . SVG Version: 1.2.0 Build 709)  -->
  <g>
    <g id="Capa_1">
      <circle class="cls-1" cx="256" cy="256" r="256"/>
      <path class="cls-1" d="M512,256c0-12.3-.9-24.4-2.6-36.3l-82.1-82.1-64.6,66.2-48.9-48.9-57.9-1.4-38.7,24.7,42.6,42.6-7.7,9.4-100.1-100.1-9.5,201.6,173.2,173.2c112.5-26.9,196.2-128.2,196.2-249Z"/>
      <g>
        <path class="cls-2" d="M320.7,267h-106c1.2-10.5,4.9-20.3,11.1-29.5,6.2-9.2,17.7-20.1,34.7-32.7,10.4-7.7,17-13.5,19.9-17.5,2.9-4,4.3-7.8,4.3-11.4s-1.4-7.2-4.3-9.9c-2.9-2.7-6.5-4.1-10.8-4.1s-8.2,1.4-11.1,4.3c-2.9,2.8-4.8,7.8-5.8,15l-35.4-2.9c1.4-9.9,3.9-17.7,7.6-23.3,3.7-5.6,8.9-9.9,15.7-12.8,6.7-3,16.1-4.5,28-4.5s22.1,1.4,29,4.3c6.9,2.8,12.4,7.2,16.3,13.1,4,5.9,5.9,12.5,5.9,19.7s-2.3,15.2-6.8,22.2c-4.5,7.1-12.8,14.8-24.8,23.3-7.1,4.9-11.9,8.4-14.3,10.3-2.4,2-5.2,4.5-8.5,7.7h55.2v28.8h0Z"/>
        <path class="cls-2" d="M396.5,243.2h-64.4v-29.1l64.4-76.5h30.8v78.2h16v27.4h-16v23.8h-30.8v-23.8ZM396.5,215.8v-40l-34,40h34Z"/>
      </g>
      <path class="cls-2" d="M289.8,304.1c-11.8,15.3-23.5,30.6-35.3,45.8-35.2-27.1-66.8-58.7-93.9-93.9,15.3-11.8,30.6-23.5,45.8-35.3-21.4-27.8-39.7-58.2-54.3-90.6-7.6,3.4-26.7,12-46.9,21.2-35.5,16-49,59.6-28.6,92.9,47.4,77.2,112.4,142.2,189.7,189.7,33.2,20.4,76.8,7,92.9-28.5,9.1-20.3,17.8-39.3,21.2-46.9-32.4-14.6-62.8-32.9-90.6-54.3Z"/>
      <path class="cls-2" d="M289.8,304.1c-11.8,15.3-23.5,30.6-35.3,45.8-17.2-13.2-33.5-27.6-48.9-42.8l-45.7,42.7c31.9,32,67.6,60.2,106.4,84.1,33.2,20.4,76.8,7,92.9-28.5,9.1-20.3,17.8-39.3,21.2-46.9-32.4-14.6-62.8-32.9-90.6-54.3Z"/>
    </g>
  </g>
</svg>