<?xml version="1.0" encoding="UTF-8"?>
<svg xmlns="http://www.w3.org/2000/svg" version="1.1" viewBox="0 0 88.3 88.3">
  <defs>
    <style>
      .cls-1 {
        fill: #19a8f7;
      }

      .cls-2 {
        fill: #e8edf2;
      }

      .cls-3 {
        fill: #c4d3e4;
      }

      .cls-4 {
        fill: #0c6bc3;
      }

      .cls-5 {
        fill: #4f9edd;
      }

      .cls-6 {
        fill: #4db6ff;
      }

      .cls-7 {
        fill: #fff;
      }

      .cls-8 {
        fill: #f9f9f9;
      }

      .cls-9 {
        fill: #108be1;
      }
    </style>
  </defs>
  <!-- Generator: Adobe Illustrator 28.6.0, SVG Export Plug-In . SVG Version: 1.2.0 Build 709)  -->
  <g>
    <g id="Layer_1">
      <g id="Layer_1-2" data-name="Layer_1">
        <g id="Layer_1-2">
          <g>
            <g>
              <path class="cls-5" d="M56.2,55.1v15.4H6.8c-2.2,0-4-1.7-4-3.7v-7.8c0-2.1,1.8-3.7,4-3.7h49.4Z"/>
              <path class="cls-4" d="M2.8,63.1v3.6c0,2.1,1.7,3.7,3.7,3.7h46.5v-7.4H2.8Z"/>
              <path class="cls-5" d="M85.5,50.3v15.6c0,2.6-1.9,4.7-4.3,4.7h-26v-34.5c0-2.6,1.9-4.5,4.4-4.5h15.5c1.7,0,3.1,1,3.9,2.6l6.1,13.8c.4.8.5,1.6.5,2.3h-.1Z"/>
              <path class="cls-1" d="M85,48l-6.5-13.8c-.8-1.6-2.3-2.6-4.1-2.6h-5.9v39h12.5c2.6,0,4.5-2.1,4.5-4.7v-15.6c0-.8,0-1.6-.5-2.3Z"/>
              <path class="cls-7" d="M77.9,45.8l-3.4-7.4c-.4-.8-1.2-1.3-1.9-1.3h-11.9c-1.2,0-2.2.9-2.2,2.2v7.4c0,1.2.9,2.2,2.2,2.2h15.4c1.6,0,2.6-1.7,1.9-3.1h-.1Z"/>
              <path class="cls-7" d="M72.3,52.8c0,.6-.5,1.2-1.2,1.2h-5.7c-.6,0-1.2-.5-1.2-1.2s.5-1.2,1.2-1.2h5.7c.6,0,1.2.5,1.2,1.2Z"/>
              <path class="cls-7" d="M85.5,57.3v7.2h-1.8c-1.9,0-3.6-1.6-3.6-3.6h0c0-1.9,1.6-3.6,3.6-3.6h1.8Z"/>
              <path class="cls-8" d="M72.3,52.8c0,.6-.5,1.2-1.2,1.2h-2.7v-2.5h2.7c.6,0,1.2.5,1.2,1.2h0Z"/>
              <g>
                <circle class="cls-9" cx="12.6" cy="71" r="8.5"/>
                <path class="cls-4" d="M12.6,62.6v16.9c4.7,0,8.4-3.9,8.4-8.5s-3.7-8.4-8.4-8.5h0Z"/>
                <path class="cls-2" d="M16.6,71c0,2.2-1.7,3.9-3.9,4h0c-2.2,0-4-1.8-4-4s1.8-4,4-4,0,0,0,0c2.2,0,3.9,1.8,3.9,4Z"/>
                <path class="cls-3" d="M16.6,71c0,2.2-1.7,3.9-3.9,4v-8c2.2,0,3.9,1.8,3.9,4Z"/>
              </g>
              <g>
                <circle class="cls-9" cx="30.9" cy="71" r="8.5"/>
                <path class="cls-4" d="M30.9,62.6v16.9c4.7,0,8.4-3.9,8.4-8.5s-3.7-8.4-8.4-8.5h0Z"/>
                <path class="cls-2" d="M34.9,71c0,2.2-1.7,3.9-3.9,4h0c-2.2,0-4-1.8-4-4s1.8-4,4-4,0,0,0,0c2.2,0,3.9,1.8,3.9,4Z"/>
                <path class="cls-3" d="M34.9,71c0,2.2-1.7,3.9-3.9,4v-8c2.2,0,3.9,1.8,3.9,4Z"/>
              </g>
              <g>
                <circle class="cls-9" cx="69.4" cy="71" r="8.5"/>
                <path class="cls-4" d="M69.5,62.6v16.9c4.7,0,8.4-3.9,8.4-8.5s-3.7-8.4-8.4-8.5h0Z"/>
                <path class="cls-2" d="M73.4,71c0,2.2-1.7,3.9-3.9,4h0c-2.2,0-4-1.8-4-4s1.8-4,4-4,0,0,0,0c2.2,0,3.9,1.8,3.9,4Z"/>
                <path class="cls-3" d="M73.4,71c0,2.2-1.7,3.9-3.9,4v-8c2.2,0,3.9,1.8,3.9,4Z"/>
              </g>
            </g>
            <path class="cls-6" d="M54.5,63v-12.1c0-.4,0-.9.5-1.2s.8-.5,1.2-.5c.9,0,1.7.8,1.7,1.7v12.1c0,.9-.8,1.7-1.7,1.7s-1.7-.8-1.7-1.7Z"/>
            <path class="cls-6" d="M23,59.9h-12.1c-.4,0-.9,0-1.2-.5-.3-.3-.5-.8-.5-1.2,0-.9.8-1.7,1.7-1.7h12.1c.9,0,1.7.8,1.7,1.7s-.8,1.7-1.7,1.7Z"/>
          </g>
        </g>
      </g>
    </g>
  </g>
</svg>